<svg width="38" height="38" viewBox="0 0 38 38" fill="none" xmlns="http://www.w3.org/2000/svg">
<path fill-rule="evenodd" clip-rule="evenodd" d="M15.8916 0L22.1084 0C27.3391 0 29.4558 0.587896 31.52 1.69184C33.5842 2.79579 35.2042 4.41578 36.3082 6.47998C37.4121 8.54418 38 10.6609 38 15.8916V22.1084C38 27.3391 37.4121 29.4558 36.3082 31.52C35.2042 33.5842 33.5842 35.2042 31.52 36.3082C29.4558 37.4121 27.3391 38 22.1084 38H15.8916C10.6609 38 8.54418 37.4121 6.47998 36.3082C4.41578 35.2042 2.79579 33.5842 1.69184 31.52C0.587896 29.4558 0 27.3391 0 22.1084L0 15.8916C0 10.6609 0.587896 8.54418 1.69184 6.47998C2.79579 4.41578 4.41578 2.79579 6.47998 1.69184C8.54418 0.587896 10.6609 0 15.8916 0Z" fill="#00C76E"/>
<path fill-rule="evenodd" clip-rule="evenodd" d="M18.995 19.9668L24.9606 25.9325V28.1794C24.9606 29.8254 23.6263 31.1598 21.9802 31.1598H16.0195C14.3734 31.1598 13.0391 29.8254 13.0391 28.1794V25.9227L18.995 19.9668Z" fill="white"/>
<path fill-rule="evenodd" clip-rule="evenodd" d="M17.9903 18.962L11.9916 24.9604H9.82024C8.17421 24.9604 6.83984 23.626 6.83984 21.98V16.0192C6.83984 14.3732 8.17421 13.0388 9.82024 13.0388L12.0669 13.0386L17.9903 18.962Z" fill="white"/>
<path fill-rule="evenodd" clip-rule="evenodd" d="M25.9229 13.0391H28.1798C29.8258 13.0391 31.1602 14.3734 31.1602 16.0195V21.9802C31.1602 23.6263 29.8258 24.9606 28.1798 24.9606H25.9987L20 18.9619L25.9229 13.0391Z" fill="white"/>
<path fill-rule="evenodd" clip-rule="evenodd" d="M21.9802 6.83984C23.6263 6.83984 24.9606 8.17421 24.9606 9.82024V11.9916L18.995 17.9572L13.0391 12.0013V9.82024C13.0391 8.17421 14.3734 6.83984 16.0195 6.83984H21.9802Z" fill="white"/>
</svg>
